<svg id="Capa_1" data-name="Capa 1" xmlns="http://www.w3.org/2000/svg" viewBox="0 0 1280 100"><defs><style>.cls-1{fill:#1d1d1b;}.cls-2{fill:#f70606;}</style></defs><title>foto</title><path class="cls-1" d="M65.32,57.43c50-11.18,100.54-21.89,152.05-16.75,25,2.5,49.19,8.61,72.87,17,10.76,3.8,21.86,7.15,33.4,5.89,9.95-1.09,19.25-4.85,28.14-9.29C361.08,49.61,370,44.2,379.52,40c11.26-5,23.19-7.15,35.43-7.88,12.52-.75,25.09-.45,37.62-.78,12.76-.34,25.52-1,38.26-1.79C542.61,26.18,594.07,19.34,645.66,14c25.79-2.69,51.41-4.14,77.19-.44,24.81,3.57,49,10.53,72.82,18.14,5.86,1.87,11.7,3.79,17.54,5.71,3.07,1,4.38-3.82,1.33-4.82-23.8-7.83-47.71-15.57-72.29-20.65A270.84,270.84,0,0,0,667.15,7c-26,1.9-52,5.3-78,8.21-26.13,2.94-52.29,5.78-78.51,7.9-25.84,2.09-51.7,3.32-77.62,3.54-12,.1-24.1.32-35.92,2.6-10.77,2.09-20.69,6.38-30.37,11.44C357.31,45.62,348.07,51.2,338,54.91c-10.78,4-21.59,5-32.81,2.2-11.88-2.92-23.21-7.89-35-11.29a293.83,293.83,0,0,0-36.73-8.09,306.15,306.15,0,0,0-74.94-2C133,38.06,107.64,43,82.51,48.51c-6.18,1.34-12.35,2.72-18.52,4.1-3.13.7-1.81,5.52,1.33,4.82Z"/><path class="cls-2" d="M419.34,55.35a408.53,408.53,0,0,1,99.88-35.73q6.54-1.41,13.12-2.62c4.35-.79,9-2,13.42-1.94,4.76.08,7.58,3.31,10.66,6.49s6.14,6.47,9.2,9.7c11.65,12.28,24.18,23.19,39.25,31.08a135.77,135.77,0,0,0,48,14.68c8.95,1,17.76-.12,26.64-1.2,4.54-.56,9.08-1.08,13.64-1.26s9.24.29,13.89.47A33.26,33.26,0,0,0,719.8,73.1c3.9-1.4,7.63-3.24,11.59-4.48,8.42-2.66,17.27-3.21,26.05-2.79,9,.42,17.83,1.82,26.69,3.16q13.61,2.07,27.28,3.57c18.81,2,37.7,3.32,56.58,4.52,8.18.53,17.41,2,24.89-2.29,3.26-1.86,5.88-4.63,8.52-7.25a37.44,37.44,0,0,1,9.12-6.89,33.44,33.44,0,0,1,11.55-3.55c3.16-.37,3.2-5.38,0-5a39.41,39.41,0,0,0-21,8.93c-2.94,2.47-5.37,5.5-8.39,7.88-3.43,2.7-7.45,3.66-11.75,3.78-9.18.24-18.55-1-27.7-1.58-9.52-.65-19-1.36-28.54-2.23s-19-1.88-28.45-3.15c-9-1.21-17.91-2.77-26.91-3.86-8.71-1-17.56-1.65-26.3-.69a67.52,67.52,0,0,0-12.52,2.48c-4.11,1.26-8,3.17-12,4.62-8.82,3.16-18.09.83-27.23,1.36S673.1,71.93,664,72.37,645.72,71.18,636.85,69a128.67,128.67,0,0,1-23.7-8.17c-15.6-7.2-28.9-17.49-40.8-29.79-3-3.09-5.93-6.24-8.89-9.37s-5.76-6.49-9.23-9c-6.87-4.93-16.55-1.76-24.12-.36a412.15,412.15,0,0,0-101.3,32.76q-6,2.87-12,5.92c-2.87,1.47-.34,5.78,2.52,4.32Z"/><path class="cls-2" d="M24,151.25c25.31-26.72,57.52-45,90.6-60.44,37.2-17.34,75.45-32.52,113.79-47.1,39-14.84,78.31-28.78,117.71-42.49,19.43-6.77,38.79-14,58.47-20,10-3,20.21-5.65,30.63-6.55,7.9-.68,18.64-1.58,25.54,3.3,12,8.53-3.39,23-9.49,30q-11.1,12.82-22.47,25.44-23.44,26-47.9,51.15a2.54,2.54,0,0,0,1.1,4.18c9.25,3.56,19,3.82,28.79,3.24,11.23-.67,22.45-1.72,33.65-2.77q34.17-3.21,68.2-7.79c44.5-5.93,88.78-13.34,132.91-21.57C735,43.2,823.78,23.28,913.1,5.92q37.57-7.3,75.27-13.87c5.5-1,11.35-2.58,17-2.34,9.14.39,8.24,8,6.57,14.78-3.11,12.71-6.27,25.4-9.4,38.1a2.53,2.53,0,0,0,2.41,3.17,632.19,632.19,0,0,0,165.62-26.47c3.08-.92,1.77-5.75-1.33-4.82a626.89,626.89,0,0,1-164.29,26.29l2.41,3.16q4.18-16.93,8.36-33.87c1.73-7,5.56-17-1.27-22.53-5.72-4.66-14.27-2.53-20.82-1.41q-17.49,3-35,6.15c-46.58,8.48-93,17.92-139.36,27.51-92.64,19.17-185.23,39-278.87,52.76q-40.18,5.93-80.6,10.18-19.27,2-38.61,3.52c-12.73,1-25.74,2.4-37.93-2.29l1.11,4.17q23.28-23.92,45.7-48.71,11-12.18,21.8-24.57c6-6.92,14.17-14.25,17.25-23.14,5.8-16.76-12.63-22.36-25.48-22.39-21.44-.05-42,7.37-62,14.28-84.5,29.23-169.11,58.58-251,94.53-39.92,17.51-79.83,37.55-110.21,69.6-2.21,2.34,1.32,5.88,3.54,3.54Z"/></svg>